<?xml version="1.0" encoding="UTF-8" standalone="no"?><!DOCTYPE svg PUBLIC "-//W3C//DTD SVG 1.1//EN" "http://www.w3.org/Graphics/SVG/1.1/DTD/svg11.dtd"><svg width="100%" height="100%" viewBox="0 0 7291 1254" version="1.1" xmlns="http://www.w3.org/2000/svg" xmlns:xlink="http://www.w3.org/1999/xlink" xml:space="preserve" xmlns:serif="http://www.serif.com/" style="fill-rule:evenodd;clip-rule:evenodd;stroke-linejoin:round;stroke-miterlimit:2;"><g id="Ebene-1" serif:id="Ebene 1"><text x="-71.526px" y="995.819px" style="font-family:'Menlo-Bold', 'Menlo', monospace;font-weight:700;font-size:1171.88px;fill:#f08e21;stroke:#f08e21;stroke-width:3.13px;">Bi<tspan x="1339.41px 2044.88px 2750.35px 3455.82px 4161.29px " y="995.819px 995.819px 995.819px 995.819px 995.819px ">tling</tspan>o</text><clipPath id="_clip1"><rect x="5870.28" y="353.512" width="1402.55" height="701.276" clip-rule="nonzero"/></clipPath><g clip-path="url(#_clip1)"><path d="M6769.37,558.862l-0,-67.265c-0,-54.466 -45.508,-99.024 -101.146,-99.024l-657.735,0c-55.638,0 -101.159,44.558 -101.159,99.024l0,206.159c0,54.453 45.521,99.023 101.159,99.023l657.735,-0c55.638,-0 101.146,-44.57 101.146,-99.023l-0,-33.659m-395.625,185.937l-0,66.654c-0,54.479 45.507,99.036 101.158,99.036l657.722,0c55.638,0 101.159,-44.557 101.159,-99.036l-0,-206.146c-0,-54.466 -45.521,-99.036 -101.159,-99.036l-657.722,-0c-55.651,-0 -101.158,44.57 -101.158,99.036l-0,34.701" style="fill:none;fill-rule:nonzero;stroke:#000;stroke-width:78.13px;stroke-linejoin:miter;stroke-miterlimit:10;"/></g></g></svg>